<mxfile host="app.diagrams.net" modified="2021-11-17T06:53:40.422Z" agent="5.0 (Windows NT 10.0; Win64; x64) AppleWebKit/537.36 (KHTML, like Gecko) Chrome/95.0.4638.69 Safari/537.36" etag="GoRs3_YXHk12G04u3CP1" version="15.7.4" type="github" pages="8">
  <diagram id="TEiGeegSjmJ6f0aQ-dnH" name="Applications">
    <mxGraphModel dx="1108" dy="450" grid="1" gridSize="10" guides="1" tooltips="1" connect="1" arrows="1" fold="1" page="1" pageScale="1" pageWidth="827" pageHeight="1169" math="0" shadow="0">
      <root>
        <mxCell id="C0uBvo0sxlXmU1d8hJrw-0" />
        <mxCell id="C0uBvo0sxlXmU1d8hJrw-1" parent="C0uBvo0sxlXmU1d8hJrw-0" />
        <mxCell id="C0uBvo0sxlXmU1d8hJrw-2" value="" style="dashed=0;outlineConnect=0;html=1;align=center;labelPosition=center;verticalLabelPosition=bottom;verticalAlign=top;shape=mxgraph.weblogos.github" vertex="1" parent="C0uBvo0sxlXmU1d8hJrw-1">
          <mxGeometry x="160" y="50" width="75" height="75" as="geometry" />
        </mxCell>
        <mxCell id="C0uBvo0sxlXmU1d8hJrw-3" value="" style="image;image=img/lib/atlassian/Jira_Logo.svg;" vertex="1" parent="C0uBvo0sxlXmU1d8hJrw-1">
          <mxGeometry x="290" y="53" width="72" height="72" as="geometry" />
        </mxCell>
        <mxCell id="C0uBvo0sxlXmU1d8hJrw-5" value="" style="image;image=img/lib/atlassian/Confluence_Logo.svg;" vertex="1" parent="C0uBvo0sxlXmU1d8hJrw-1">
          <mxGeometry x="430" y="59" width="63" height="57" as="geometry" />
        </mxCell>
        <mxCell id="C0uBvo0sxlXmU1d8hJrw-6" value="&lt;font style=&quot;font-size: 48px&quot;&gt;... 30+ apps&lt;/font&gt;" style="text;html=1;strokeColor=none;fillColor=none;align=center;verticalAlign=middle;whiteSpace=wrap;rounded=0;" vertex="1" parent="C0uBvo0sxlXmU1d8hJrw-1">
          <mxGeometry x="270" y="230" width="260" height="30" as="geometry" />
        </mxCell>
      </root>
    </mxGraphModel>
  </diagram>
  <diagram id="nueXIR84vyG6_MvMmBYQ" name="HighLevel_Architecture">
    <mxGraphModel dx="1935" dy="1619" grid="1" gridSize="10" guides="1" tooltips="1" connect="1" arrows="1" fold="1" page="1" pageScale="1" pageWidth="827" pageHeight="1169" math="0" shadow="0">
      <root>
        <mxCell id="0" />
        <mxCell id="1" parent="0" />
        <mxCell id="UNBRvOB7-qm-90K4wu7g-10" style="edgeStyle=orthogonalEdgeStyle;rounded=0;orthogonalLoop=1;jettySize=auto;html=1;" parent="1" source="UNBRvOB7-qm-90K4wu7g-1" edge="1">
          <mxGeometry relative="1" as="geometry">
            <mxPoint x="80" y="490" as="targetPoint" />
          </mxGeometry>
        </mxCell>
        <mxCell id="UNBRvOB7-qm-90K4wu7g-14" style="edgeStyle=orthogonalEdgeStyle;rounded=0;orthogonalLoop=1;jettySize=auto;html=1;entryX=0.16;entryY=0.55;entryDx=0;entryDy=0;entryPerimeter=0;" parent="1" source="UNBRvOB7-qm-90K4wu7g-1" target="UNBRvOB7-qm-90K4wu7g-13" edge="1">
          <mxGeometry relative="1" as="geometry" />
        </mxCell>
        <mxCell id="eav_6RI03DQ-O8VDnUbr-11" value="6-7 months over intenet" style="edgeLabel;html=1;align=center;verticalAlign=middle;resizable=0;points=[];" parent="UNBRvOB7-qm-90K4wu7g-14" vertex="1" connectable="0">
          <mxGeometry x="-0.2732" y="-2" relative="1" as="geometry">
            <mxPoint as="offset" />
          </mxGeometry>
        </mxCell>
        <mxCell id="TBXfq7Qxt_Qu1N68Q_Q7-1" style="edgeStyle=orthogonalEdgeStyle;rounded=0;orthogonalLoop=1;jettySize=auto;html=1;entryX=0.5;entryY=0.88;entryDx=0;entryDy=0;entryPerimeter=0;" parent="1" source="UNBRvOB7-qm-90K4wu7g-1" target="qxiYZRoztxMLkrM83rcC-1" edge="1">
          <mxGeometry relative="1" as="geometry" />
        </mxCell>
        <mxCell id="UNBRvOB7-qm-90K4wu7g-1" value="Infosys Bangalore" style="rounded=1;arcSize=10;dashed=1;strokeColor=#F59D56;fillColor=#3399FF;gradientColor=none;dashPattern=8 4;strokeWidth=2;" parent="1" vertex="1">
          <mxGeometry x="10" y="250" width="140" height="140" as="geometry" />
        </mxCell>
        <mxCell id="eav_6RI03DQ-O8VDnUbr-8" style="edgeStyle=orthogonalEdgeStyle;rounded=0;orthogonalLoop=1;jettySize=auto;html=1;entryX=0.88;entryY=0.25;entryDx=0;entryDy=0;entryPerimeter=0;" parent="1" source="UNBRvOB7-qm-90K4wu7g-5" target="UNBRvOB7-qm-90K4wu7g-13" edge="1">
          <mxGeometry relative="1" as="geometry">
            <Array as="points">
              <mxPoint x="416" y="60" />
            </Array>
          </mxGeometry>
        </mxCell>
        <mxCell id="eav_6RI03DQ-O8VDnUbr-9" value="connec to Exchange US" style="edgeLabel;html=1;align=center;verticalAlign=middle;resizable=0;points=[];" parent="eav_6RI03DQ-O8VDnUbr-8" vertex="1" connectable="0">
          <mxGeometry x="-0.6865" relative="1" as="geometry">
            <mxPoint x="74" as="offset" />
          </mxGeometry>
        </mxCell>
        <mxCell id="UNBRvOB7-qm-90K4wu7g-5" value="Azure(Pune)" style="rounded=1;arcSize=10;dashed=1;strokeColor=#F59D56;fillColor=#FFD966;gradientColor=none;dashPattern=8 4;strokeWidth=2;" parent="1" vertex="1">
          <mxGeometry x="210" y="10" width="140" height="140" as="geometry" />
        </mxCell>
        <mxCell id="UNBRvOB7-qm-90K4wu7g-6" value="Github (US)" style="rounded=1;arcSize=10;dashed=1;strokeColor=#F59D56;fillColor=#FFD966;gradientColor=none;dashPattern=8 4;strokeWidth=2;" parent="1" vertex="1">
          <mxGeometry x="660" y="230" width="140" height="140" as="geometry" />
        </mxCell>
        <mxCell id="UNBRvOB7-qm-90K4wu7g-7" value="Atlassian (US)" style="rounded=1;arcSize=10;dashed=1;strokeColor=#F59D56;fillColor=#FFD966;gradientColor=none;dashPattern=8 4;strokeWidth=2;" parent="1" vertex="1">
          <mxGeometry x="660" y="450" width="140" height="140" as="geometry" />
        </mxCell>
        <mxCell id="UNBRvOB7-qm-90K4wu7g-8" value="Jfrog(US)" style="rounded=1;arcSize=10;dashed=1;strokeColor=#F59D56;fillColor=#FFD966;gradientColor=none;dashPattern=8 4;strokeWidth=2;" parent="1" vertex="1">
          <mxGeometry x="660" y="670" width="140" height="140" as="geometry" />
        </mxCell>
        <mxCell id="UNBRvOB7-qm-90K4wu7g-16" style="edgeStyle=orthogonalEdgeStyle;rounded=0;orthogonalLoop=1;jettySize=auto;html=1;entryX=0.13;entryY=0.77;entryDx=0;entryDy=0;entryPerimeter=0;" parent="1" source="UNBRvOB7-qm-90K4wu7g-9" target="UNBRvOB7-qm-90K4wu7g-13" edge="1">
          <mxGeometry relative="1" as="geometry">
            <Array as="points">
              <mxPoint x="230" y="580" />
              <mxPoint x="230" y="452" />
            </Array>
          </mxGeometry>
        </mxCell>
        <mxCell id="UNBRvOB7-qm-90K4wu7g-9" value="Infosys Chennai" style="rounded=1;arcSize=10;dashed=1;strokeColor=#F59D56;fillColor=#3399FF;gradientColor=none;dashPattern=8 4;strokeWidth=2;" parent="1" vertex="1">
          <mxGeometry y="510" width="140" height="140" as="geometry" />
        </mxCell>
        <mxCell id="UNBRvOB7-qm-90K4wu7g-18" style="edgeStyle=orthogonalEdgeStyle;rounded=0;orthogonalLoop=1;jettySize=auto;html=1;entryX=0;entryY=0.414;entryDx=0;entryDy=0;entryPerimeter=0;" parent="1" source="UNBRvOB7-qm-90K4wu7g-13" target="UNBRvOB7-qm-90K4wu7g-6" edge="1">
          <mxGeometry relative="1" as="geometry" />
        </mxCell>
        <mxCell id="UNBRvOB7-qm-90K4wu7g-19" style="edgeStyle=orthogonalEdgeStyle;rounded=0;orthogonalLoop=1;jettySize=auto;html=1;entryX=0;entryY=0.5;entryDx=0;entryDy=0;" parent="1" source="UNBRvOB7-qm-90K4wu7g-13" target="UNBRvOB7-qm-90K4wu7g-7" edge="1">
          <mxGeometry relative="1" as="geometry" />
        </mxCell>
        <mxCell id="UNBRvOB7-qm-90K4wu7g-20" style="edgeStyle=orthogonalEdgeStyle;rounded=0;orthogonalLoop=1;jettySize=auto;html=1;entryX=0;entryY=0.5;entryDx=0;entryDy=0;" parent="1" source="UNBRvOB7-qm-90K4wu7g-13" target="UNBRvOB7-qm-90K4wu7g-8" edge="1">
          <mxGeometry relative="1" as="geometry" />
        </mxCell>
        <mxCell id="eav_6RI03DQ-O8VDnUbr-6" style="edgeStyle=orthogonalEdgeStyle;rounded=0;orthogonalLoop=1;jettySize=auto;html=1;" parent="1" source="UNBRvOB7-qm-90K4wu7g-13" edge="1">
          <mxGeometry relative="1" as="geometry">
            <mxPoint x="650" y="110" as="targetPoint" />
            <Array as="points">
              <mxPoint x="370" y="110" />
            </Array>
          </mxGeometry>
        </mxCell>
        <mxCell id="UNBRvOB7-qm-90K4wu7g-13" value="Exchange" style="ellipse;shape=cloud;whiteSpace=wrap;html=1;fillColor=#FFFF33;" parent="1" vertex="1">
          <mxGeometry x="310" y="390" width="120" height="80" as="geometry" />
        </mxCell>
        <mxCell id="qxiYZRoztxMLkrM83rcC-3" style="edgeStyle=orthogonalEdgeStyle;rounded=0;orthogonalLoop=1;jettySize=auto;html=1;entryX=0;entryY=0.5;entryDx=0;entryDy=0;" parent="1" source="qxiYZRoztxMLkrM83rcC-1" target="UNBRvOB7-qm-90K4wu7g-5" edge="1">
          <mxGeometry relative="1" as="geometry" />
        </mxCell>
        <mxCell id="qxiYZRoztxMLkrM83rcC-1" value="" style="verticalLabelPosition=bottom;html=1;verticalAlign=top;align=center;strokeColor=none;fillColor=#00BEF2;shape=mxgraph.azure.express_route;pointerEvents=1;" parent="1" vertex="1">
          <mxGeometry x="80" y="65" width="50" height="30" as="geometry" />
        </mxCell>
        <mxCell id="eav_6RI03DQ-O8VDnUbr-2" value="Azure (US)" style="rounded=1;arcSize=10;dashed=1;strokeColor=#F59D56;fillColor=#FFD966;gradientColor=none;dashPattern=8 4;strokeWidth=2;" parent="1" vertex="1">
          <mxGeometry x="660" y="110" width="140" height="70" as="geometry" />
        </mxCell>
        <mxCell id="eav_6RI03DQ-O8VDnUbr-3" value="AWS(US)" style="rounded=1;arcSize=10;dashed=1;strokeColor=#F59D56;fillColor=#FFD966;gradientColor=none;dashPattern=8 4;strokeWidth=2;" parent="1" vertex="1">
          <mxGeometry x="660" y="30" width="140" height="70" as="geometry" />
        </mxCell>
        <mxCell id="eav_6RI03DQ-O8VDnUbr-4" value="GCP(US East)" style="rounded=1;arcSize=10;dashed=1;strokeColor=#F59D56;fillColor=#FFD966;gradientColor=none;dashPattern=8 4;strokeWidth=2;" parent="1" vertex="1">
          <mxGeometry x="660" y="-50" width="140" height="70" as="geometry" />
        </mxCell>
        <mxCell id="eav_6RI03DQ-O8VDnUbr-5" value="each region 300K" style="text;html=1;strokeColor=none;fillColor=none;align=center;verticalAlign=middle;whiteSpace=wrap;rounded=0;" parent="1" vertex="1">
          <mxGeometry x="510" y="-40" width="110" height="30" as="geometry" />
        </mxCell>
        <mxCell id="eav_6RI03DQ-O8VDnUbr-7" value="" style="rounded=0;whiteSpace=wrap;html=1;fillColor=none;" parent="1" vertex="1">
          <mxGeometry x="650" y="-80" width="170" height="280" as="geometry" />
        </mxCell>
        <mxCell id="eav_6RI03DQ-O8VDnUbr-10" value="6 -7 month over intenet." style="text;html=1;strokeColor=none;fillColor=none;align=center;verticalAlign=middle;whiteSpace=wrap;rounded=0;" parent="1" vertex="1">
          <mxGeometry x="400" y="230" width="60" height="30" as="geometry" />
        </mxCell>
        <mxCell id="eav_6RI03DQ-O8VDnUbr-12" value="SD WAN overlay" style="text;html=1;strokeColor=none;fillColor=none;align=center;verticalAlign=middle;whiteSpace=wrap;rounded=0;" parent="1" vertex="1">
          <mxGeometry x="330" y="480" width="60" height="30" as="geometry" />
        </mxCell>
      </root>
    </mxGraphModel>
  </diagram>
  <diagram name="Kubernetes" id="md8h9-hME1zrFiCigEji">
    <mxGraphModel dx="1108" dy="427" grid="1" gridSize="10" guides="1" tooltips="1" connect="1" arrows="1" fold="1" page="1" pageScale="1" pageWidth="827" pageHeight="1169" math="0" shadow="0">
      <root>
        <mxCell id="SUHvff9UJC1InYcolZvA-0" />
        <mxCell id="SUHvff9UJC1InYcolZvA-1" parent="SUHvff9UJC1InYcolZvA-0" />
        <mxCell id="SUHvff9UJC1InYcolZvA-2" style="edgeStyle=orthogonalEdgeStyle;rounded=0;orthogonalLoop=1;jettySize=auto;html=1;" edge="1" parent="SUHvff9UJC1InYcolZvA-1" source="SUHvff9UJC1InYcolZvA-4">
          <mxGeometry relative="1" as="geometry">
            <mxPoint x="80" y="490" as="targetPoint" />
          </mxGeometry>
        </mxCell>
        <mxCell id="DyDe-FKOrkbs6bn2UnjQ-1" style="edgeStyle=orthogonalEdgeStyle;rounded=0;orthogonalLoop=1;jettySize=auto;html=1;" edge="1" parent="SUHvff9UJC1InYcolZvA-1" source="SUHvff9UJC1InYcolZvA-4">
          <mxGeometry relative="1" as="geometry">
            <mxPoint x="410" y="450" as="targetPoint" />
            <Array as="points">
              <mxPoint x="280" y="320" />
              <mxPoint x="280" y="450" />
            </Array>
          </mxGeometry>
        </mxCell>
        <mxCell id="SUHvff9UJC1InYcolZvA-4" value="Infosys Bangalore" style="rounded=1;arcSize=10;dashed=1;strokeColor=#F59D56;fillColor=#3399FF;gradientColor=none;dashPattern=8 4;strokeWidth=2;" vertex="1" parent="SUHvff9UJC1InYcolZvA-1">
          <mxGeometry x="10" y="250" width="140" height="140" as="geometry" />
        </mxCell>
        <mxCell id="SUHvff9UJC1InYcolZvA-8" value="" style="rounded=1;arcSize=10;dashed=1;strokeColor=#F59D56;fillColor=#FFD966;gradientColor=none;dashPattern=8 4;strokeWidth=2;" vertex="1" parent="SUHvff9UJC1InYcolZvA-1">
          <mxGeometry x="660" y="670" width="140" height="140" as="geometry" />
        </mxCell>
        <mxCell id="DyDe-FKOrkbs6bn2UnjQ-0" style="edgeStyle=orthogonalEdgeStyle;rounded=0;orthogonalLoop=1;jettySize=auto;html=1;entryX=-0.007;entryY=0.65;entryDx=0;entryDy=0;entryPerimeter=0;" edge="1" parent="SUHvff9UJC1InYcolZvA-1" source="SUHvff9UJC1InYcolZvA-10">
          <mxGeometry relative="1" as="geometry">
            <mxPoint x="413.02" y="451" as="targetPoint" />
            <Array as="points">
              <mxPoint x="280" y="580" />
              <mxPoint x="280" y="451" />
            </Array>
          </mxGeometry>
        </mxCell>
        <mxCell id="SUHvff9UJC1InYcolZvA-10" value="Infosys Chennai" style="rounded=1;arcSize=10;dashed=1;strokeColor=#F59D56;fillColor=#3399FF;gradientColor=none;dashPattern=8 4;strokeWidth=2;" vertex="1" parent="SUHvff9UJC1InYcolZvA-1">
          <mxGeometry x="10" y="510" width="140" height="140" as="geometry" />
        </mxCell>
        <mxCell id="SUHvff9UJC1InYcolZvA-16" value="" style="sketch=0;aspect=fixed;html=1;points=[];align=center;image;fontSize=12;image=img/lib/mscae/Kubernetes.svg;fillColor=#FFFF33;" vertex="1" parent="SUHvff9UJC1InYcolZvA-1">
          <mxGeometry x="55" y="260" width="50" height="48" as="geometry" />
        </mxCell>
        <mxCell id="SUHvff9UJC1InYcolZvA-17" value="" style="sketch=0;aspect=fixed;html=1;points=[];align=center;image;fontSize=12;image=img/lib/mscae/Kubernetes.svg;fillColor=#FFFF33;" vertex="1" parent="SUHvff9UJC1InYcolZvA-1">
          <mxGeometry x="55" y="520" width="50" height="48" as="geometry" />
        </mxCell>
        <mxCell id="LO7K0VO0iT3gc_4_uuWf-0" value="" style="sketch=0;aspect=fixed;html=1;points=[];align=center;image;fontSize=12;image=img/lib/mscae/Kubernetes.svg;fillColor=#FFFF33;" vertex="1" parent="SUHvff9UJC1InYcolZvA-1">
          <mxGeometry x="490" y="260" width="50" height="48" as="geometry" />
        </mxCell>
        <mxCell id="DyDe-FKOrkbs6bn2UnjQ-2" value="Rancher+ PortWorx" style="text;html=1;strokeColor=none;fillColor=none;align=center;verticalAlign=middle;whiteSpace=wrap;rounded=0;" vertex="1" parent="SUHvff9UJC1InYcolZvA-1">
          <mxGeometry x="200" y="438" width="60" height="30" as="geometry" />
        </mxCell>
        <mxCell id="QIE__n54A2_4-pSMvZZQ-0" value="Azure (US)" style="rounded=1;arcSize=10;dashed=1;strokeColor=#F59D56;fillColor=#FFD966;gradientColor=none;dashPattern=8 4;strokeWidth=2;" vertex="1" parent="SUHvff9UJC1InYcolZvA-1">
          <mxGeometry x="445" y="478" width="140" height="70" as="geometry" />
        </mxCell>
        <mxCell id="QIE__n54A2_4-pSMvZZQ-1" value="AWS(US)" style="rounded=1;arcSize=10;dashed=1;strokeColor=#F59D56;fillColor=#FFD966;gradientColor=none;dashPattern=8 4;strokeWidth=2;" vertex="1" parent="SUHvff9UJC1InYcolZvA-1">
          <mxGeometry x="445" y="398" width="140" height="70" as="geometry" />
        </mxCell>
        <mxCell id="QIE__n54A2_4-pSMvZZQ-2" value="GCP(US East)" style="rounded=1;arcSize=10;dashed=1;strokeColor=#F59D56;fillColor=#FFD966;gradientColor=none;dashPattern=8 4;strokeWidth=2;" vertex="1" parent="SUHvff9UJC1InYcolZvA-1">
          <mxGeometry x="445" y="318" width="140" height="70" as="geometry" />
        </mxCell>
        <mxCell id="QIE__n54A2_4-pSMvZZQ-3" value="" style="rounded=0;whiteSpace=wrap;html=1;fillColor=none;" vertex="1" parent="SUHvff9UJC1InYcolZvA-1">
          <mxGeometry x="430" y="308" width="170" height="260" as="geometry" />
        </mxCell>
      </root>
    </mxGraphModel>
  </diagram>
  <diagram name="VM view" id="5CEhMx1gVGIi0BLHDCTK">
    <mxGraphModel dx="1935" dy="427" grid="1" gridSize="10" guides="1" tooltips="1" connect="1" arrows="1" fold="1" page="1" pageScale="1" pageWidth="827" pageHeight="1169" math="0" shadow="0">
      <root>
        <mxCell id="CUmwimkmdjBtT2poXjty-0" />
        <mxCell id="CUmwimkmdjBtT2poXjty-1" parent="CUmwimkmdjBtT2poXjty-0" />
        <mxCell id="CUmwimkmdjBtT2poXjty-2" style="edgeStyle=orthogonalEdgeStyle;rounded=0;orthogonalLoop=1;jettySize=auto;html=1;" edge="1" parent="CUmwimkmdjBtT2poXjty-1" source="CUmwimkmdjBtT2poXjty-4">
          <mxGeometry relative="1" as="geometry">
            <mxPoint x="80" y="490" as="targetPoint" />
          </mxGeometry>
        </mxCell>
        <mxCell id="seSr21EzH7BlXZ_ULb4g-1" style="edgeStyle=orthogonalEdgeStyle;rounded=0;orthogonalLoop=1;jettySize=auto;html=1;entryX=0.02;entryY=0.9;entryDx=0;entryDy=0;entryPerimeter=0;" edge="1" parent="CUmwimkmdjBtT2poXjty-1" source="CUmwimkmdjBtT2poXjty-4" target="seSr21EzH7BlXZ_ULb4g-0">
          <mxGeometry relative="1" as="geometry">
            <Array as="points">
              <mxPoint x="230" y="320" />
              <mxPoint x="230" y="437" />
            </Array>
          </mxGeometry>
        </mxCell>
        <mxCell id="CUmwimkmdjBtT2poXjty-4" value="Infosys Bangalore" style="rounded=1;arcSize=10;dashed=1;strokeColor=#F59D56;fillColor=#3399FF;gradientColor=none;dashPattern=8 4;strokeWidth=2;" vertex="1" parent="CUmwimkmdjBtT2poXjty-1">
          <mxGeometry x="10" y="250" width="140" height="140" as="geometry" />
        </mxCell>
        <mxCell id="CUmwimkmdjBtT2poXjty-5" value="Azure Cloud" style="rounded=1;arcSize=10;dashed=1;strokeColor=#F59D56;fillColor=#FFD966;gradientColor=none;dashPattern=8 4;strokeWidth=2;" vertex="1" parent="CUmwimkmdjBtT2poXjty-1">
          <mxGeometry x="553.5" y="350" width="140" height="140" as="geometry" />
        </mxCell>
        <mxCell id="seSr21EzH7BlXZ_ULb4g-2" style="edgeStyle=orthogonalEdgeStyle;rounded=0;orthogonalLoop=1;jettySize=auto;html=1;" edge="1" parent="CUmwimkmdjBtT2poXjty-1" source="CUmwimkmdjBtT2poXjty-10">
          <mxGeometry relative="1" as="geometry">
            <mxPoint x="320" y="440" as="targetPoint" />
            <Array as="points">
              <mxPoint x="230" y="580" />
              <mxPoint x="230" y="440" />
            </Array>
          </mxGeometry>
        </mxCell>
        <mxCell id="CUmwimkmdjBtT2poXjty-10" value="Infosys Chennai" style="rounded=1;arcSize=10;dashed=1;strokeColor=#F59D56;fillColor=#3399FF;gradientColor=none;dashPattern=8 4;strokeWidth=2;" vertex="1" parent="CUmwimkmdjBtT2poXjty-1">
          <mxGeometry y="510" width="140" height="140" as="geometry" />
        </mxCell>
        <mxCell id="CUmwimkmdjBtT2poXjty-11" style="edgeStyle=orthogonalEdgeStyle;rounded=0;orthogonalLoop=1;jettySize=auto;html=1;entryX=0;entryY=0.75;entryDx=0;entryDy=0;exitX=0.96;exitY=0.7;exitDx=0;exitDy=0;exitPerimeter=0;" edge="1" parent="CUmwimkmdjBtT2poXjty-1" source="seSr21EzH7BlXZ_ULb4g-0" target="CUmwimkmdjBtT2poXjty-5">
          <mxGeometry relative="1" as="geometry">
            <mxPoint x="430" y="430" as="sourcePoint" />
          </mxGeometry>
        </mxCell>
        <mxCell id="fC7L2PhrbagnNntO8M3V-0" value="" style="dashed=0;outlineConnect=0;html=1;align=center;labelPosition=center;verticalLabelPosition=bottom;verticalAlign=top;shape=mxgraph.weblogos.github;fillColor=#FFFF33;" vertex="1" parent="CUmwimkmdjBtT2poXjty-1">
          <mxGeometry x="20" y="190" width="50" height="50" as="geometry" />
        </mxCell>
        <mxCell id="fC7L2PhrbagnNntO8M3V-1" value="Jira" style="image;image=img/lib/atlassian/Jira_Software_Logo.svg;fillColor=#FFFF33;" vertex="1" parent="CUmwimkmdjBtT2poXjty-1">
          <mxGeometry x="80" y="192" width="50" height="48" as="geometry" />
        </mxCell>
        <mxCell id="fC7L2PhrbagnNntO8M3V-2" value="" style="image;image=img/lib/atlassian/Confluence_Logo.svg;fillColor=#FFFF33;" vertex="1" parent="CUmwimkmdjBtT2poXjty-1">
          <mxGeometry x="150" y="193" width="50" height="47" as="geometry" />
        </mxCell>
        <mxCell id="fC7L2PhrbagnNntO8M3V-3" value="" style="dashed=0;outlineConnect=0;html=1;align=center;labelPosition=center;verticalLabelPosition=bottom;verticalAlign=top;shape=mxgraph.weblogos.github;fillColor=#FFFF33;" vertex="1" parent="CUmwimkmdjBtT2poXjty-1">
          <mxGeometry x="530" y="340" width="50" height="50" as="geometry" />
        </mxCell>
        <mxCell id="fC7L2PhrbagnNntO8M3V-4" value="Jira" style="image;image=img/lib/atlassian/Jira_Software_Logo.svg;fillColor=#FFFF33;" vertex="1" parent="CUmwimkmdjBtT2poXjty-1">
          <mxGeometry x="590" y="342" width="50" height="48" as="geometry" />
        </mxCell>
        <mxCell id="fC7L2PhrbagnNntO8M3V-5" value="" style="image;image=img/lib/atlassian/Confluence_Logo.svg;fillColor=#FFFF33;" vertex="1" parent="CUmwimkmdjBtT2poXjty-1">
          <mxGeometry x="660" y="343" width="50" height="47" as="geometry" />
        </mxCell>
        <mxCell id="seSr21EzH7BlXZ_ULb4g-0" value="" style="verticalLabelPosition=bottom;html=1;verticalAlign=top;align=center;strokeColor=none;fillColor=#00BEF2;shape=mxgraph.azure.express_route;pointerEvents=1;" vertex="1" parent="CUmwimkmdjBtT2poXjty-1">
          <mxGeometry x="320" y="410" width="50" height="30" as="geometry" />
        </mxCell>
        <mxCell id="mJ75Zdn_ElymohRzcACS-0" value="Artifactory" style="editableCssRules=.*;shape=image;verticalLabelPosition=bottom;labelBackgroundColor=#ffffff;verticalAlign=top;aspect=fixed;imageAspect=0;image=data:image/svg+xml,PHN2ZyB4bWxucz0iaHR0cDovL3d3dy53My5vcmcvMjAwMC9zdmciIHhtbG5zOnY9Imh0dHBzOi8vdmVjdGEuaW8vbmFubyIgd2lkdGg9IjIxLjk5OTAwMDU0OTMxNjQwNiIgaGVpZ2h0PSIyMC4zOTM5OTkwOTk3MzE0NDUiIHZpZXdCb3g9IjAgMCAyMS45OTkwMDA1NDkzMTY0MDYgMjAuMzkzOTk5MDk5NzMxNDQ1Ij4mI3hhOwk8c3R5bGUgdHlwZT0idGV4dC9jc3MiPiYjeGE7CS5zdDB7ZmlsbDojNDI4NWY0O2ZpbGwtcnVsZTpldmVub2RkfSYjeGE7CTwvc3R5bGU+JiN4YTsJPHBhdGggY2xhc3M9InN0MCIgZD0iTTUgMHYyLjQ1OEwxLjk5OSA0LjE5N3YxMi4wMUw1IDE3LjkzOHYyLjQ1NmwtNS0yLjg4N1YyLjg4NnptMTIgMGw0Ljk5OSAyLjg4NnYxNC42MjFMMTcgMjAuMzk0di0yLjQ1NmwzLTEuNzMxVjQuMTk3bC0zLTEuNzM5em0tNi4wMTYgNi42NzNsMi45NDctMS42NDYtMi45NDctMS42NDYtMi45NDcgMS42NDZ6bTMuMjY4LTEuMDk2bC0yLjg3MSAxLjY3OHYzLjI4N2wyLjg3MS0xLjY3NnpNNy43NzMgOC44NjZsMi44NzEgMS42NzRWNy4yNTZMNy43NzMgNS41Nzd6bS0uMjEyIDMuODc4bDIuODItMS42NDYtMi44Mi0xLjY0Ni0yLjgyIDEuNjQ2em0zLjEzMi0xLjA5OGwtMi44NzEgMS42Nzh2My4yODdsMi44NzEtMS42NzZ6bS02LjI2NCAzLjI4OUw3LjMgMTYuNjA5di0zLjI4NWwtMi44NzEtMS42Nzl6bTEwLjAyOS0yLjE5MWwyLjgyLTEuNjQ2LTIuODItMS42NDYtMi44MiAxLjY0NnptMy4xMzItMS4wOThsLTIuODcxIDEuNjc4djMuMjg3bDIuODcxLTEuNjc2em0tNi4yNjQgMy4yODlsMi44NzEgMS42NzR2LTMuMjg1bC0yLjg3MS0xLjY3OXoiLz4mI3hhOzwvc3ZnPg==;fillColor=#FFFF33;" vertex="1" parent="CUmwimkmdjBtT2poXjty-1">
          <mxGeometry x="59.16" y="390" width="41.67" height="37.5" as="geometry" />
        </mxCell>
        <mxCell id="mJ75Zdn_ElymohRzcACS-1" value="Artifactory (Hybrid)" style="editableCssRules=.*;shape=image;verticalLabelPosition=bottom;labelBackgroundColor=#ffffff;verticalAlign=top;aspect=fixed;imageAspect=0;image=data:image/svg+xml,PHN2ZyB4bWxucz0iaHR0cDovL3d3dy53My5vcmcvMjAwMC9zdmciIHhtbG5zOnY9Imh0dHBzOi8vdmVjdGEuaW8vbmFubyIgd2lkdGg9IjIxLjk5OTAwMDU0OTMxNjQwNiIgaGVpZ2h0PSIyMC4zOTM5OTkwOTk3MzE0NDUiIHZpZXdCb3g9IjAgMCAyMS45OTkwMDA1NDkzMTY0MDYgMjAuMzkzOTk5MDk5NzMxNDQ1Ij4mI3hhOwk8c3R5bGUgdHlwZT0idGV4dC9jc3MiPiYjeGE7CS5zdDB7ZmlsbDojNDI4NWY0O2ZpbGwtcnVsZTpldmVub2RkfSYjeGE7CTwvc3R5bGU+JiN4YTsJPHBhdGggY2xhc3M9InN0MCIgZD0iTTUgMHYyLjQ1OEwxLjk5OSA0LjE5N3YxMi4wMUw1IDE3LjkzOHYyLjQ1NmwtNS0yLjg4N1YyLjg4NnptMTIgMGw0Ljk5OSAyLjg4NnYxNC42MjFMMTcgMjAuMzk0di0yLjQ1NmwzLTEuNzMxVjQuMTk3bC0zLTEuNzM5em0tNi4wMTYgNi42NzNsMi45NDctMS42NDYtMi45NDctMS42NDYtMi45NDcgMS42NDZ6bTMuMjY4LTEuMDk2bC0yLjg3MSAxLjY3OHYzLjI4N2wyLjg3MS0xLjY3NnpNNy43NzMgOC44NjZsMi44NzEgMS42NzRWNy4yNTZMNy43NzMgNS41Nzd6bS0uMjEyIDMuODc4bDIuODItMS42NDYtMi44Mi0xLjY0Ni0yLjgyIDEuNjQ2em0zLjEzMi0xLjA5OGwtMi44NzEgMS42Nzh2My4yODdsMi44NzEtMS42NzZ6bS02LjI2NCAzLjI4OUw3LjMgMTYuNjA5di0zLjI4NWwtMi44NzEtMS42Nzl6bTEwLjAyOS0yLjE5MWwyLjgyLTEuNjQ2LTIuODItMS42NDYtMi44MiAxLjY0NnptMy4xMzItMS4wOThsLTIuODcxIDEuNjc4djMuMjg3bDIuODcxLTEuNjc2em0tNi4yNjQgMy4yODlsMi44NzEgMS42NzR2LTMuMjg1bC0yLjg3MS0xLjY3OXoiLz4mI3hhOzwvc3ZnPg==;fillColor=#FFFF33;" vertex="1" parent="CUmwimkmdjBtT2poXjty-1">
          <mxGeometry x="598.3299999999999" y="490" width="41.67" height="37.5" as="geometry" />
        </mxCell>
      </root>
    </mxGraphModel>
  </diagram>
  <diagram id="H81Y2Hl7OQjeiX0ZVyw5" name="Artifactory plan">
    <mxGraphModel dx="1108" dy="450" grid="1" gridSize="10" guides="1" tooltips="1" connect="1" arrows="1" fold="1" page="1" pageScale="1" pageWidth="827" pageHeight="1169" math="0" shadow="0">
      <root>
        <mxCell id="33Yene0WIZDsLpT7RuhP-0" />
        <mxCell id="33Yene0WIZDsLpT7RuhP-1" parent="33Yene0WIZDsLpT7RuhP-0" />
        <mxCell id="b0vN2uQSFI6eePDt3rKv-0" value="ACR + Artifactory&lt;br&gt;" style="text;html=1;strokeColor=none;fillColor=none;align=center;verticalAlign=middle;whiteSpace=wrap;rounded=0;" vertex="1" parent="33Yene0WIZDsLpT7RuhP-1">
          <mxGeometry x="330" y="200" width="60" height="30" as="geometry" />
        </mxCell>
      </root>
    </mxGraphModel>
  </diagram>
  <diagram id="enNG5fZST-q3uFVZzi8b" name="Github SAAS Plan">
    <mxGraphModel dx="1108" dy="450" grid="1" gridSize="10" guides="1" tooltips="1" connect="1" arrows="1" fold="1" page="1" pageScale="1" pageWidth="827" pageHeight="1169" math="0" shadow="0">
      <root>
        <mxCell id="WC_CJ7rs8bNSvJMxfots-0" />
        <mxCell id="WC_CJ7rs8bNSvJMxfots-1" parent="WC_CJ7rs8bNSvJMxfots-0" />
      </root>
    </mxGraphModel>
  </diagram>
  <diagram id="3etjnMHbS1uyxi8U9LsD" name="Page-6">
    <mxGraphModel dx="1935" dy="450" grid="1" gridSize="10" guides="1" tooltips="1" connect="1" arrows="1" fold="1" page="1" pageScale="1" pageWidth="827" pageHeight="1169" math="0" shadow="0">
      <root>
        <mxCell id="nSXpVYtY0t28hWv4NooF-0" />
        <mxCell id="nSXpVYtY0t28hWv4NooF-1" parent="nSXpVYtY0t28hWv4NooF-0" />
        <mxCell id="nSXpVYtY0t28hWv4NooF-7" style="edgeStyle=orthogonalEdgeStyle;rounded=0;orthogonalLoop=1;jettySize=auto;html=1;" parent="nSXpVYtY0t28hWv4NooF-1" source="nSXpVYtY0t28hWv4NooF-2" edge="1">
          <mxGeometry relative="1" as="geometry">
            <mxPoint x="270" y="140" as="targetPoint" />
          </mxGeometry>
        </mxCell>
        <mxCell id="nSXpVYtY0t28hWv4NooF-10" style="edgeStyle=orthogonalEdgeStyle;rounded=0;orthogonalLoop=1;jettySize=auto;html=1;entryX=0;entryY=0.5;entryDx=0;entryDy=0;" parent="nSXpVYtY0t28hWv4NooF-1" source="nSXpVYtY0t28hWv4NooF-2" target="nSXpVYtY0t28hWv4NooF-9" edge="1">
          <mxGeometry relative="1" as="geometry">
            <Array as="points">
              <mxPoint x="10" y="225" />
              <mxPoint y="225" />
              <mxPoint y="335" />
            </Array>
          </mxGeometry>
        </mxCell>
        <mxCell id="nSXpVYtY0t28hWv4NooF-2" value="webpage" style="rounded=0;whiteSpace=wrap;html=1;fillColor=#FFFF33;" parent="nSXpVYtY0t28hWv4NooF-1" vertex="1">
          <mxGeometry x="-10" y="110" width="120" height="60" as="geometry" />
        </mxCell>
        <mxCell id="nSXpVYtY0t28hWv4NooF-3" value="node (socket.io)" style="rounded=1;whiteSpace=wrap;html=1;fillColor=#FFFF33;" parent="nSXpVYtY0t28hWv4NooF-1" vertex="1">
          <mxGeometry x="300" y="110" width="120" height="60" as="geometry" />
        </mxCell>
        <mxCell id="nSXpVYtY0t28hWv4NooF-6" style="edgeStyle=orthogonalEdgeStyle;rounded=0;orthogonalLoop=1;jettySize=auto;html=1;" parent="nSXpVYtY0t28hWv4NooF-1" source="nSXpVYtY0t28hWv4NooF-4" edge="1">
          <mxGeometry relative="1" as="geometry">
            <mxPoint x="430" y="140" as="targetPoint" />
          </mxGeometry>
        </mxCell>
        <mxCell id="nSXpVYtY0t28hWv4NooF-8" style="edgeStyle=orthogonalEdgeStyle;rounded=0;orthogonalLoop=1;jettySize=auto;html=1;entryX=0;entryY=0.5;entryDx=0;entryDy=0;" parent="nSXpVYtY0t28hWv4NooF-1" source="nSXpVYtY0t28hWv4NooF-4" target="nSXpVYtY0t28hWv4NooF-5" edge="1">
          <mxGeometry relative="1" as="geometry" />
        </mxCell>
        <mxCell id="nSXpVYtY0t28hWv4NooF-12" style="edgeStyle=orthogonalEdgeStyle;rounded=0;orthogonalLoop=1;jettySize=auto;html=1;" parent="nSXpVYtY0t28hWv4NooF-1" source="nSXpVYtY0t28hWv4NooF-4" edge="1">
          <mxGeometry relative="1" as="geometry">
            <mxPoint x="520" y="330" as="targetPoint" />
          </mxGeometry>
        </mxCell>
        <mxCell id="nSXpVYtY0t28hWv4NooF-4" value="ssh2" style="rounded=1;whiteSpace=wrap;html=1;fillColor=#FFFF33;" parent="nSXpVYtY0t28hWv4NooF-1" vertex="1">
          <mxGeometry x="460" y="110" width="120" height="60" as="geometry" />
        </mxCell>
        <mxCell id="nSXpVYtY0t28hWv4NooF-5" value="ssh server" style="rounded=1;whiteSpace=wrap;html=1;fillColor=#FFFF33;" parent="nSXpVYtY0t28hWv4NooF-1" vertex="1">
          <mxGeometry x="630" y="110" width="120" height="60" as="geometry" />
        </mxCell>
        <mxCell id="nSXpVYtY0t28hWv4NooF-11" style="edgeStyle=orthogonalEdgeStyle;rounded=0;orthogonalLoop=1;jettySize=auto;html=1;" parent="nSXpVYtY0t28hWv4NooF-1" source="nSXpVYtY0t28hWv4NooF-9" edge="1">
          <mxGeometry relative="1" as="geometry">
            <mxPoint x="530" y="180" as="targetPoint" />
          </mxGeometry>
        </mxCell>
        <mxCell id="nSXpVYtY0t28hWv4NooF-9" value="Socket.io (VM)" style="rounded=1;whiteSpace=wrap;html=1;fillColor=#CC6600;" parent="nSXpVYtY0t28hWv4NooF-1" vertex="1">
          <mxGeometry x="140" y="280" width="120" height="110" as="geometry" />
        </mxCell>
        <mxCell id="nSXpVYtY0t28hWv4NooF-13" value="" style="rounded=1;whiteSpace=wrap;html=1;fillColor=#CC6600;" parent="nSXpVYtY0t28hWv4NooF-1" vertex="1">
          <mxGeometry x="310" y="40" width="440" height="60" as="geometry" />
        </mxCell>
        <mxCell id="83Sx38p-B-AG5YYHJaV7-0" style="edgeStyle=orthogonalEdgeStyle;rounded=0;orthogonalLoop=1;jettySize=auto;html=1;" parent="nSXpVYtY0t28hWv4NooF-1" source="nSXpVYtY0t28hWv4NooF-14" edge="1">
          <mxGeometry relative="1" as="geometry">
            <mxPoint x="530" y="280" as="targetPoint" />
          </mxGeometry>
        </mxCell>
        <mxCell id="nSXpVYtY0t28hWv4NooF-14" value="node (socket.io)" style="rounded=1;whiteSpace=wrap;html=1;fillColor=#FFFF33;" parent="nSXpVYtY0t28hWv4NooF-1" vertex="1">
          <mxGeometry x="140" y="400" width="120" height="60" as="geometry" />
        </mxCell>
      </root>
    </mxGraphModel>
  </diagram>
  <diagram name="MarketPlace" id="2XW5hWxsSYxtJYVDw3F5">
    <mxGraphModel dx="1935" dy="1653" grid="1" gridSize="10" guides="1" tooltips="1" connect="1" arrows="1" fold="1" page="1" pageScale="1" pageWidth="827" pageHeight="1169" math="0" shadow="0">
      <root>
        <mxCell id="rGfJCQLOCxwGo6DnBR3--0" />
        <mxCell id="rGfJCQLOCxwGo6DnBR3--1" parent="rGfJCQLOCxwGo6DnBR3--0" />
        <mxCell id="LscBCwluJuFpKUFcCOQj-4" value="" style="rounded=1;whiteSpace=wrap;html=1;fillColor=none;" vertex="1" parent="rGfJCQLOCxwGo6DnBR3--1">
          <mxGeometry x="-120" y="10" width="730" height="160" as="geometry" />
        </mxCell>
        <mxCell id="LscBCwluJuFpKUFcCOQj-0" value="Apps Seperated by Namespaces" style="sketch=0;aspect=fixed;html=1;points=[];align=center;image;fontSize=12;image=img/lib/mscae/Kubernetes_Services.svg;fillColor=#CC6600;" vertex="1" parent="rGfJCQLOCxwGo6DnBR3--1">
          <mxGeometry x="190" y="100" width="50" height="37" as="geometry" />
        </mxCell>
        <mxCell id="LscBCwluJuFpKUFcCOQj-1" value="" style="sketch=0;aspect=fixed;html=1;points=[];align=center;image;fontSize=12;image=img/lib/mscae/Kubernetes_Services.svg;fillColor=#CC6600;" vertex="1" parent="rGfJCQLOCxwGo6DnBR3--1">
          <mxGeometry x="270" y="100" width="50" height="37" as="geometry" />
        </mxCell>
        <mxCell id="LscBCwluJuFpKUFcCOQj-2" value="" style="sketch=0;aspect=fixed;html=1;points=[];align=center;image;fontSize=12;image=img/lib/mscae/Kubernetes_Services.svg;fillColor=#CC6600;" vertex="1" parent="rGfJCQLOCxwGo6DnBR3--1">
          <mxGeometry x="350" y="100" width="50" height="37" as="geometry" />
        </mxCell>
        <mxCell id="LscBCwluJuFpKUFcCOQj-3" value="AKS" style="sketch=0;aspect=fixed;html=1;points=[];align=center;image;fontSize=12;image=img/lib/mscae/Kubernetes.svg;fillColor=#CC6600;" vertex="1" parent="rGfJCQLOCxwGo6DnBR3--1">
          <mxGeometry x="270" y="10" width="50" height="48" as="geometry" />
        </mxCell>
        <mxCell id="LscBCwluJuFpKUFcCOQj-5" value="LE Passport" style="rounded=1;whiteSpace=wrap;html=1;fillColor=none;" vertex="1" parent="rGfJCQLOCxwGo6DnBR3--1">
          <mxGeometry x="490" y="-150" width="120" height="60" as="geometry" />
        </mxCell>
        <mxCell id="zT8zMlS1APT9_FnZphvq-4" value="Trynow Link" style="edgeStyle=orthogonalEdgeStyle;rounded=0;orthogonalLoop=1;jettySize=auto;html=1;entryX=0.17;entryY=0;entryDx=0;entryDy=0;entryPerimeter=0;" edge="1" parent="rGfJCQLOCxwGo6DnBR3--1" source="LscBCwluJuFpKUFcCOQj-6" target="LscBCwluJuFpKUFcCOQj-11">
          <mxGeometry relative="1" as="geometry" />
        </mxCell>
        <mxCell id="LscBCwluJuFpKUFcCOQj-6" value="Market Place" style="rounded=1;whiteSpace=wrap;html=1;fillColor=none;" vertex="1" parent="rGfJCQLOCxwGo6DnBR3--1">
          <mxGeometry x="30" y="-150" width="150" height="60" as="geometry" />
        </mxCell>
        <mxCell id="LscBCwluJuFpKUFcCOQj-10" value="Kubernetes Cluster" style="text;html=1;strokeColor=none;fillColor=none;align=center;verticalAlign=middle;whiteSpace=wrap;rounded=0;" vertex="1" parent="rGfJCQLOCxwGo6DnBR3--1">
          <mxGeometry x="220" y="180" width="125" height="30" as="geometry" />
        </mxCell>
        <mxCell id="LscBCwluJuFpKUFcCOQj-14" style="edgeStyle=orthogonalEdgeStyle;rounded=0;orthogonalLoop=1;jettySize=auto;html=1;startArrow=none;" edge="1" parent="rGfJCQLOCxwGo6DnBR3--1" source="LscBCwluJuFpKUFcCOQj-20">
          <mxGeometry relative="1" as="geometry">
            <mxPoint x="300" as="targetPoint" />
          </mxGeometry>
        </mxCell>
        <mxCell id="LscBCwluJuFpKUFcCOQj-11" value="Iremote" style="rounded=1;whiteSpace=wrap;html=1;fillColor=none;" vertex="1" parent="rGfJCQLOCxwGo6DnBR3--1">
          <mxGeometry x="250" y="-80" width="100" height="40" as="geometry" />
        </mxCell>
        <mxCell id="LscBCwluJuFpKUFcCOQj-17" value="" style="shape=image;html=1;verticalAlign=top;verticalLabelPosition=bottom;labelBackgroundColor=#ffffff;imageAspect=0;aspect=fixed;image=https://cdn4.iconfinder.com/data/icons/simplicio/128x128/notification_error.png;fillColor=none;" vertex="1" parent="rGfJCQLOCxwGo6DnBR3--1">
          <mxGeometry x="320" y="-90" width="40" height="40" as="geometry" />
        </mxCell>
        <mxCell id="LscBCwluJuFpKUFcCOQj-18" value="This has concern Need alternate" style="text;html=1;strokeColor=none;fillColor=none;align=center;verticalAlign=middle;whiteSpace=wrap;rounded=0;" vertex="1" parent="rGfJCQLOCxwGo6DnBR3--1">
          <mxGeometry x="360" y="-70" width="100" height="30" as="geometry" />
        </mxCell>
        <mxCell id="LscBCwluJuFpKUFcCOQj-23" value="DB(Paas) (MSSQL, Mysql, postgress, mongo db)" style="rounded=1;whiteSpace=wrap;html=1;fillColor=none;" vertex="1" parent="rGfJCQLOCxwGo6DnBR3--1">
          <mxGeometry x="-90" y="30" width="180" height="60" as="geometry" />
        </mxCell>
        <mxCell id="LscBCwluJuFpKUFcCOQj-24" value="Storage( File, Diskstore)" style="rounded=1;whiteSpace=wrap;html=1;fillColor=none;" vertex="1" parent="rGfJCQLOCxwGo6DnBR3--1">
          <mxGeometry x="-90" y="100" width="180" height="60" as="geometry" />
        </mxCell>
        <mxCell id="LscBCwluJuFpKUFcCOQj-20" value="&lt;b&gt;&amp;lt;appname&amp;gt;.marketplace.infosysapps.com&lt;/b&gt;" style="text;html=1;strokeColor=none;fillColor=none;align=center;verticalAlign=middle;whiteSpace=wrap;rounded=0;" vertex="1" parent="rGfJCQLOCxwGo6DnBR3--1">
          <mxGeometry x="175" y="-30" width="250" height="30" as="geometry" />
        </mxCell>
        <mxCell id="zT8zMlS1APT9_FnZphvq-0" value="" style="edgeStyle=orthogonalEdgeStyle;rounded=0;orthogonalLoop=1;jettySize=auto;html=1;endArrow=none;" edge="1" parent="rGfJCQLOCxwGo6DnBR3--1" source="LscBCwluJuFpKUFcCOQj-11" target="LscBCwluJuFpKUFcCOQj-20">
          <mxGeometry relative="1" as="geometry">
            <mxPoint x="300" as="targetPoint" />
            <mxPoint x="300" y="-40" as="sourcePoint" />
          </mxGeometry>
        </mxCell>
        <mxCell id="zT8zMlS1APT9_FnZphvq-1" value="marketplace.infosys.com" style="text;html=1;strokeColor=none;fillColor=none;align=center;verticalAlign=middle;whiteSpace=wrap;rounded=0;fontStyle=1" vertex="1" parent="rGfJCQLOCxwGo6DnBR3--1">
          <mxGeometry x="75" y="-120" width="60" height="30" as="geometry" />
        </mxCell>
        <mxCell id="zT8zMlS1APT9_FnZphvq-3" style="edgeStyle=orthogonalEdgeStyle;rounded=0;orthogonalLoop=1;jettySize=auto;html=1;entryX=0.373;entryY=-0.067;entryDx=0;entryDy=0;entryPerimeter=0;" edge="1" parent="rGfJCQLOCxwGo6DnBR3--1" source="zT8zMlS1APT9_FnZphvq-2" target="LscBCwluJuFpKUFcCOQj-6">
          <mxGeometry relative="1" as="geometry" />
        </mxCell>
        <mxCell id="zT8zMlS1APT9_FnZphvq-2" value="User" style="shape=umlActor;verticalLabelPosition=bottom;verticalAlign=top;html=1;outlineConnect=0;fillColor=none;" vertex="1" parent="rGfJCQLOCxwGo6DnBR3--1">
          <mxGeometry x="70" y="-260" width="30" height="60" as="geometry" />
        </mxCell>
        <mxCell id="zT8zMlS1APT9_FnZphvq-6" style="edgeStyle=orthogonalEdgeStyle;rounded=0;orthogonalLoop=1;jettySize=auto;html=1;" edge="1" parent="rGfJCQLOCxwGo6DnBR3--1" source="zT8zMlS1APT9_FnZphvq-5">
          <mxGeometry relative="1" as="geometry">
            <mxPoint x="300" y="-90" as="targetPoint" />
          </mxGeometry>
        </mxCell>
        <mxCell id="zT8zMlS1APT9_FnZphvq-5" value="User" style="shape=umlActor;verticalLabelPosition=bottom;verticalAlign=top;html=1;outlineConnect=0;fillColor=none;" vertex="1" parent="rGfJCQLOCxwGo6DnBR3--1">
          <mxGeometry x="285" y="-260" width="30" height="60" as="geometry" />
        </mxCell>
        <mxCell id="zT8zMlS1APT9_FnZphvq-7" value="SSO" style="sketch=0;points=[[0,0,0],[0.25,0,0],[0.5,0,0],[0.75,0,0],[1,0,0],[0,1,0],[0.25,1,0],[0.5,1,0],[0.75,1,0],[1,1,0],[0,0.25,0],[0,0.5,0],[0,0.75,0],[1,0.25,0],[1,0.5,0],[1,0.75,0]];outlineConnect=0;fontColor=#232F3E;gradientColor=#F54749;gradientDirection=north;fillColor=#C7131F;strokeColor=#ffffff;dashed=0;verticalLabelPosition=bottom;verticalAlign=top;align=center;html=1;fontSize=12;fontStyle=0;aspect=fixed;shape=mxgraph.aws4.resourceIcon;resIcon=mxgraph.aws4.single_sign_on;" vertex="1" parent="rGfJCQLOCxwGo6DnBR3--1">
          <mxGeometry x="-80" y="-70" width="58" height="58" as="geometry" />
        </mxCell>
      </root>
    </mxGraphModel>
  </diagram>
</mxfile>
